<svg width="25" height="25" viewBox="0 0 25 25" fill="none" xmlns="http://www.w3.org/2000/svg">
<path d="M22.42 17.3803C22.3186 17.6245 22.1245 17.8186 21.8802 17.92C21.76 17.9713 21.6309 17.9984 21.5003 18H16.5017C16.2366 18 15.9823 17.8947 15.7948 17.7072C15.6074 17.5198 15.502 17.2656 15.502 17.0005C15.502 16.7354 15.6074 16.4812 15.7948 16.2937C15.9823 16.1063 16.2366 16.001 16.5017 16.001H19.091L13.5026 10.4137L10.2136 13.7121C10.1206 13.8058 10.0101 13.8801 9.88823 13.9309C9.76641 13.9816 9.63574 14.0077 9.50377 14.0077C9.37179 14.0077 9.24113 13.9816 9.1193 13.9309C8.99748 13.8801 8.88691 13.8058 8.79397 13.7121L2.79571 7.71497C2.70201 7.62205 2.62764 7.5115 2.57688 7.3897C2.52613 7.2679 2.5 7.13726 2.5 7.00531C2.5 6.87336 2.52613 6.74272 2.57688 6.62092C2.62764 6.49912 2.70201 6.38857 2.79571 6.29566C2.88865 6.20197 2.99922 6.12761 3.12104 6.07687C3.24287 6.02612 3.37353 6 3.50551 6C3.63748 6 3.76815 6.02612 3.88997 6.07687C4.0118 6.12761 4.12236 6.20197 4.2153 6.29566L9.50377 11.5931L12.7928 8.29469C12.8857 8.20101 12.9963 8.12665 13.1181 8.0759C13.24 8.02516 13.3706 7.99903 13.5026 7.99903C13.6346 7.99903 13.7652 8.02516 13.8871 8.0759C14.0089 8.12665 14.1195 8.20101 14.2124 8.29469L20.5006 14.5916V12.0029C20.5006 11.7378 20.6059 11.4836 20.7934 11.2961C20.9809 11.1087 21.2351 11.0034 21.5003 11.0034C21.7654 11.0034 22.0197 11.1087 22.2072 11.2961C22.3947 11.4836 22.5 11.7378 22.5 12.0029V17.0005C22.4984 17.1311 22.4712 17.2601 22.42 17.3803Z" fill="#FF2625"/>
</svg>
