<svg width="24" height="25" viewBox="0 0 24 25" fill="none" xmlns="http://www.w3.org/2000/svg">
<path d="M21.92 7.12C21.8185 6.87565 21.6243 6.68147 21.38 6.58C21.2598 6.52876 21.1307 6.50158 21 6.5H16C15.7348 6.5 15.4804 6.60536 15.2929 6.79289C15.1054 6.98043 15 7.23478 15 7.5C15 7.76522 15.1054 8.01957 15.2929 8.20711C15.4804 8.39464 15.7348 8.5 16 8.5H18.59L13 14.09L9.71 10.79C9.61704 10.6963 9.50644 10.6219 9.38458 10.5711C9.26272 10.5203 9.13201 10.4942 9 10.4942C8.86799 10.4942 8.73728 10.5203 8.61542 10.5711C8.49356 10.6219 8.38296 10.6963 8.29 10.79L2.29 16.79C2.19627 16.883 2.12188 16.9936 2.07111 17.1154C2.02034 17.2373 1.9942 17.368 1.9942 17.5C1.9942 17.632 2.02034 17.7627 2.07111 17.8846C2.12188 18.0064 2.19627 18.117 2.29 18.21C2.38296 18.3037 2.49356 18.3781 2.61542 18.4289C2.73728 18.4797 2.86799 18.5058 3 18.5058C3.13201 18.5058 3.26272 18.4797 3.38458 18.4289C3.50644 18.3781 3.61704 18.3037 3.71 18.21L9 12.91L12.29 16.21C12.383 16.3037 12.4936 16.3781 12.6154 16.4289C12.7373 16.4797 12.868 16.5058 13 16.5058C13.132 16.5058 13.2627 16.4797 13.3846 16.4289C13.5064 16.3781 13.617 16.3037 13.71 16.21L20 9.91V12.5C20 12.7652 20.1054 13.0196 20.2929 13.2071C20.4804 13.3946 20.7348 13.5 21 13.5C21.2652 13.5 21.5196 13.3946 21.7071 13.2071C21.8946 13.0196 22 12.7652 22 12.5V7.5C21.9984 7.36932 21.9712 7.24022 21.92 7.12Z" fill="#00FF95"/>
</svg>
