<svg width="60" height="60" viewBox="0 0 60 60" fill="none" xmlns="http://www.w3.org/2000/svg">
<rect width="60" height="60" rx="30" fill="white" fill-opacity="0.32"/>
<g clip-path="url(#clip0_1_269)">
<path d="M30.088 18C29.696 17.9997 29.3077 18.0767 28.9455 18.2266C28.5832 18.3764 28.254 18.5962 27.9767 18.8733C27.6994 19.1504 27.4794 19.4794 27.3293 19.8416C27.1792 20.2038 27.102 20.592 27.102 20.984C27.1051 21.5839 27.288 22.1691 27.627 22.664C27.8141 22.1561 28.1523 21.7176 28.596 21.4076C29.0397 21.0976 29.5677 20.931 30.109 20.93C31.23 20.93 32.192 21.636 32.576 22.625C32.8972 22.1382 33.0696 21.5683 33.072 20.985C33.0721 20.5931 32.995 20.2049 32.8451 19.8428C32.6952 19.4806 32.4755 19.1515 32.1984 18.8743C31.9213 18.5972 31.5923 18.3773 31.2302 18.2272C30.8681 18.0772 30.4799 18 30.088 18ZM23.65 20.666C23.2581 20.666 22.8701 20.7432 22.5081 20.8931C22.146 21.0431 21.8171 21.2629 21.54 21.54C20.9804 22.0996 20.666 22.8586 20.666 23.65C20.6659 24.0419 20.743 24.4301 20.8929 24.7922C21.0428 25.1544 21.2625 25.4835 21.5396 25.7607C21.8167 26.0378 22.1457 26.2577 22.5078 26.4078C22.8699 26.5578 23.2581 26.635 23.65 26.635C24.042 26.6351 24.4302 26.558 24.7925 26.408C25.1547 26.2581 25.4838 26.0382 25.761 25.761C26.0382 25.4838 26.2581 25.1547 26.408 24.7925C26.558 24.4303 26.6351 24.042 26.635 23.65C26.635 23.2581 26.5578 22.8699 26.4078 22.5078C26.2577 22.1457 26.0378 21.8167 25.7607 21.5396C25.4835 21.2625 25.1544 21.0428 24.7922 20.8929C24.4301 20.743 24.0419 20.6659 23.65 20.666ZM36.35 20.666C35.9581 20.6659 35.5699 20.743 35.2078 20.8929C34.8456 21.0428 34.5165 21.2625 34.2393 21.5396C33.9622 21.8167 33.7423 22.1457 33.5922 22.5078C33.4422 22.8699 33.365 23.2581 33.365 23.65C33.3649 24.042 33.442 24.4303 33.592 24.7925C33.7419 25.1547 33.9618 25.4838 34.239 25.761C34.5162 26.0382 34.8453 26.2581 35.2075 26.408C35.5698 26.558 35.958 26.6351 36.35 26.635C36.7421 26.6353 37.1304 26.5582 37.4928 26.4083C37.8551 26.2584 38.1843 26.0386 38.4617 25.7614C38.739 25.4841 38.9589 25.155 39.109 24.7927C39.259 24.4304 39.3361 24.0421 39.336 23.65C39.336 23.258 39.2588 22.8698 39.1087 22.5076C38.9586 22.1454 38.7386 21.8164 38.4613 21.5393C38.184 21.2622 37.8548 21.0424 37.4925 20.8926C37.1303 20.7427 36.742 20.6657 36.35 20.666ZM30.11 21.43C29.5408 21.43 28.9948 21.6561 28.5922 22.0585C28.1896 22.4609 27.9633 23.0068 27.963 23.576C27.963 24.1452 28.1891 24.6912 28.5915 25.0938C28.9939 25.4964 29.5398 25.7227 30.109 25.723C30.6784 25.723 31.2245 25.4968 31.6272 25.0942C32.0298 24.6915 32.256 24.1454 32.256 23.576C32.2557 23.0068 32.0294 22.4609 31.6268 22.0585C31.2242 21.6561 30.6792 21.43 30.11 21.43ZM27.112 24.04C27.0225 24.808 26.6812 25.5248 26.1413 26.0784C25.6015 26.632 24.8935 26.9912 24.128 27.1C24.5116 27.4171 24.9933 27.5914 25.491 27.593C25.773 27.5933 26.0524 27.538 26.313 27.4302C26.5737 27.3225 26.8105 27.1645 27.0101 26.9652C27.2097 26.7659 27.368 26.5293 27.4761 26.2688C27.5842 26.0083 27.6399 25.729 27.64 25.447C27.6393 24.9304 27.4526 24.4312 27.114 24.041L27.112 24.04ZM32.894 24.087C32.579 24.4703 32.4062 24.9508 32.405 25.447C32.4053 26.0162 32.6316 26.5621 33.0342 26.9645C33.4368 27.3669 33.9828 27.593 34.552 27.593C35.0465 27.5907 35.525 27.418 35.907 27.104C35.1422 27.0042 34.4319 26.6541 33.8869 26.1084C33.3419 25.5626 32.9928 24.8519 32.894 24.087ZM20.985 27.016C20.5931 27.0159 20.2049 27.093 19.8428 27.2429C19.4806 27.3928 19.1515 27.6125 18.8743 27.8896C18.5972 28.1667 18.3773 28.4957 18.2272 28.8578C18.0772 29.2199 18 29.6081 18 30C18 30.7914 18.3144 31.5504 18.874 32.11C19.4336 32.6696 20.1926 32.984 20.984 32.984C21.5747 32.9827 22.1518 32.807 22.643 32.479C22.1384 32.2894 21.7035 31.9506 21.396 31.5078C21.0886 31.065 20.9233 30.5391 20.922 30C20.922 28.869 21.641 27.898 22.645 27.521C22.1535 27.1928 21.576 27.0171 20.985 27.016ZM39.015 27.016C38.418 27.019 37.8355 27.2001 37.342 27.536C37.8438 27.7271 38.2758 28.0659 38.5811 28.5075C38.8864 28.9492 39.0506 29.4731 39.052 30.01C39.052 31.13 38.347 32.092 37.357 32.477C37.848 32.8057 38.4251 32.9821 39.016 32.984C39.4079 32.984 39.7959 32.9068 40.1579 32.7569C40.52 32.6069 40.8489 32.3871 41.126 32.11C41.4031 31.8329 41.6229 31.504 41.7729 31.1419C41.9228 30.7799 42 30.3919 42 30C42 29.6081 41.9228 29.2201 41.7729 28.8581C41.6229 28.496 41.4031 28.1671 41.126 27.89C40.8489 27.6129 40.52 27.3931 40.1579 27.2431C39.7959 27.0932 39.4079 27.016 39.016 27.016H39.015ZM23.568 27.854C22.9989 27.8543 22.4532 28.0804 22.0508 28.4828C21.6484 28.8852 21.4223 29.4309 21.422 30C21.4223 30.5691 21.6484 31.1148 22.0508 31.5172C22.4532 31.9196 22.9989 32.1457 23.568 32.146C24.1372 32.146 24.6832 31.9199 25.0858 31.5175C25.4884 31.1151 25.7147 30.5692 25.715 30C25.7147 29.4308 25.4884 28.8849 25.0858 28.4825C24.6832 28.0801 24.1372 27.854 23.568 27.854ZM36.406 27.864C35.8369 27.8643 35.2912 28.0904 34.8888 28.4928C34.4864 28.8952 34.2603 29.4409 34.26 30.01C34.2603 30.5791 34.4864 31.1248 34.8888 31.5272C35.2912 31.9296 35.8369 32.1557 36.406 32.156C36.9752 32.156 37.5212 31.9299 37.9238 31.5275C38.3264 31.1251 38.5527 30.5792 38.553 30.01C38.553 29.4406 38.3268 28.8945 37.9242 28.4918C37.5215 28.0892 36.9754 27.863 36.406 27.863V27.864ZM25.492 32.376C24.9791 32.3764 24.4833 32.5601 24.094 32.894C24.862 32.9947 25.5748 33.3476 26.1205 33.8973C26.6662 34.447 27.0139 35.1623 27.109 35.931C27.4497 35.5406 27.6379 35.0402 27.639 34.522C27.6387 33.9528 27.4124 33.4069 27.0098 33.0045C26.6072 32.6021 26.0612 32.376 25.492 32.376ZM34.552 32.376C33.9829 32.3763 33.4372 32.6024 33.0348 33.0048C32.6324 33.4072 32.4063 33.9529 32.406 34.522C32.4076 35.0192 32.5814 35.5006 32.898 35.884C33.0029 35.1179 33.3589 34.4082 33.9103 33.8661C34.4617 33.324 35.1772 32.98 35.945 32.888C35.5564 32.5576 35.062 32.3762 34.552 32.376ZM23.65 33.364C23.2581 33.364 22.8699 33.4412 22.5078 33.5912C22.1457 33.7413 21.8167 33.9612 21.5396 34.2383C21.2625 34.5155 21.0428 34.8446 20.8929 35.2068C20.743 35.5689 20.6659 35.9571 20.666 36.349C20.6657 36.741 20.7427 37.1293 20.8926 37.4915C21.0424 37.8538 21.2622 38.183 21.5393 38.4603C21.8164 38.7376 22.1454 38.9576 22.5076 39.1077C22.8698 39.2578 23.258 39.335 23.65 39.335C24.0421 39.3351 24.4304 39.258 24.7927 39.108C25.155 38.9579 25.4841 38.738 25.7614 38.4607C26.0386 38.1833 26.2584 37.8541 26.4083 37.4918C26.5582 37.1294 26.6353 36.7411 26.635 36.349C26.6351 35.957 26.558 35.5688 26.408 35.2065C26.2581 34.8443 26.0382 34.5152 25.761 34.238C25.4838 33.9608 25.1547 33.7409 24.7925 33.591C24.4302 33.441 24.042 33.3639 23.65 33.364ZM36.35 33.364C35.958 33.3639 35.5698 33.441 35.2075 33.591C34.8453 33.7409 34.5162 33.9608 34.239 34.238C33.9618 34.5152 33.7419 34.8443 33.592 35.2065C33.442 35.5688 33.3649 35.957 33.365 36.349C33.3647 36.7411 33.4418 37.1294 33.5917 37.4918C33.7416 37.8541 33.9614 38.1833 34.2386 38.4607C34.5159 38.738 34.845 38.9579 35.2073 39.108C35.5696 39.258 35.9579 39.3351 36.35 39.335C36.7422 39.3353 37.1306 39.2582 37.493 39.1082C37.8554 38.9583 38.1847 38.7383 38.462 38.461C38.7393 38.1837 38.9593 37.8544 39.1092 37.492C39.2592 37.1296 39.3363 36.7412 39.336 36.349C39.3361 35.9569 39.259 35.5686 39.109 35.2063C38.9589 34.844 38.739 34.5149 38.4617 34.2376C38.1843 33.9604 37.8551 33.7406 37.4928 33.5907C37.1304 33.4408 36.7421 33.3637 36.35 33.364ZM30 34.272C29.4308 34.2723 28.8849 34.4986 28.4825 34.9012C28.0801 35.3038 27.854 35.8498 27.854 36.419C27.854 36.9882 28.0801 37.5342 28.4825 37.9368C28.8849 38.3394 29.4308 38.5657 30 38.566C30.5691 38.5657 31.1148 38.3396 31.5172 37.9372C31.9196 37.5348 32.1457 36.9891 32.146 36.42C32.146 35.8508 31.9199 35.3048 31.5175 34.9022C31.1151 34.4996 30.5692 34.2733 30 34.273V34.272ZM32.268 37.776C32.0335 38.1686 31.7014 38.4938 31.3039 38.72C30.9065 38.9463 30.4573 39.0658 30 39.067C29.5684 39.0664 29.1435 38.9605 28.7622 38.7583C28.3808 38.5561 28.0547 38.2639 27.812 37.907C27.513 38.3387 27.353 38.8459 27.352 39.365C27.352 39.711 27.4227 40.0537 27.5601 40.3734C27.6975 40.6931 27.8989 40.9835 28.1528 41.2282C28.4066 41.4729 28.708 41.667 29.0397 41.7994C29.3714 41.9318 29.727 42 30.086 42C30.8111 42 31.5065 41.7224 32.0192 41.2282C32.532 40.7341 32.82 40.0638 32.82 39.365C32.8201 38.7919 32.6263 38.2344 32.268 37.777V37.776Z" fill="#FF8F6B"/>
</g>
<defs>
<clipPath id="clip0_1_269">
<rect width="24" height="24" fill="white" transform="translate(18 18)"/>
</clipPath>
</defs>
</svg>
