<svg width="60" height="60" viewBox="0 0 60 60" fill="none" xmlns="http://www.w3.org/2000/svg">
<rect width="60" height="60" rx="30" fill="white" fill-opacity="0.32"/>
<path d="M36.7209 21.7504C36.4529 21.7712 36.1967 21.8697 35.9837 22.0337C35.7706 22.1978 35.61 22.4203 35.5213 22.6741C35.4326 22.9279 35.4197 23.202 35.4843 23.463C35.5488 23.724 35.6879 23.9606 35.8846 24.1439C36.6544 24.9122 37.2648 25.8251 37.6806 26.83C38.0965 27.835 38.3096 28.9123 38.3077 29.9999C38.309 31.0874 38.0956 32.1645 37.6798 33.1694C37.264 34.1743 36.6539 35.0872 35.8846 35.8559C35.7509 35.9836 35.6441 36.1367 35.5704 36.3063C35.4967 36.4758 35.4576 36.6584 35.4555 36.8433C35.4534 37.0281 35.4882 37.2116 35.558 37.3828C35.6278 37.554 35.731 37.7095 35.8618 37.8403C35.9925 37.971 36.148 38.0743 36.3193 38.144C36.4905 38.2138 36.6739 38.2487 36.8588 38.2465C37.0436 38.2444 37.2262 38.2053 37.3958 38.1317C37.5653 38.058 37.7185 37.9511 37.8461 37.8174C39.9154 35.7419 41.0774 32.9307 41.0774 29.9999C41.0774 27.0691 39.9154 24.2579 37.8461 22.1824C37.7196 22.0486 37.5676 21.9414 37.3991 21.867C37.2307 21.7927 37.049 21.7527 36.8649 21.7494C36.8169 21.7469 36.7689 21.7469 36.7209 21.7494V21.7504ZM22.9615 21.778C22.6547 21.8187 22.3703 21.9611 22.1538 22.1824C20.0846 24.2579 18.9226 27.0691 18.9226 29.9999C18.9226 32.9307 20.0846 35.7419 22.1538 37.8174C22.2815 37.9511 22.4346 38.058 22.6042 38.1317C22.7738 38.2053 22.9563 38.2444 23.1412 38.2465C23.3261 38.2487 23.5095 38.2138 23.6807 38.144C23.8519 38.0743 24.0075 37.971 24.1382 37.8403C24.2689 37.7095 24.3722 37.554 24.442 37.3828C24.5118 37.2116 24.5466 37.0281 24.5445 36.8433C24.5423 36.6584 24.5033 36.4758 24.4296 36.3063C24.3559 36.1367 24.2491 35.9836 24.1154 35.8559C23.3456 35.0876 22.7352 34.1747 22.3193 33.1697C21.9035 32.1648 21.6904 31.0875 21.6923 29.9999C21.691 28.9124 21.9044 27.8353 22.3202 26.8304C22.736 25.8255 23.346 24.9126 24.1154 24.1439C24.3247 23.9406 24.4644 23.6764 24.5147 23.389C24.5649 23.1016 24.5231 22.8057 24.3951 22.5435C24.2672 22.2812 24.0597 22.0661 23.8022 21.9288C23.5448 21.7916 23.2506 21.7382 22.9615 21.778ZM26.4812 24.8362C26.1776 24.8688 25.8933 25.0009 25.6726 25.2119C25.0027 25.8171 24.4668 26.5557 24.0993 27.3802C23.7317 28.2048 23.5407 29.0971 23.5384 29.9999C23.5384 31.8904 24.3415 33.6091 25.644 34.7888C25.7785 34.9119 25.936 35.0073 26.1074 35.0695C26.2789 35.1318 26.4609 35.1596 26.6431 35.1515C26.8252 35.1434 27.0041 35.0995 27.1693 35.0223C27.3345 34.9451 27.4829 34.8361 27.606 34.7016C27.7291 34.567 27.8245 34.4095 27.8867 34.2381C27.949 34.0667 27.9768 33.8847 27.9687 33.7025C27.9606 33.5203 27.9167 33.3415 27.8395 33.1763C27.7623 33.0111 27.6533 32.8627 27.5188 32.7396C27.1355 32.3938 26.8296 31.971 26.6209 31.499C26.4122 31.0269 26.3055 30.516 26.3077 29.9999C26.3058 29.4836 26.4127 28.9726 26.6215 28.5004C26.8304 28.0282 27.1364 27.6053 27.5197 27.2593C27.7409 27.0668 27.8953 26.8091 27.9607 26.5233C28.026 26.2375 27.999 25.9383 27.8834 25.6688C27.7678 25.3993 27.5696 25.1735 27.3175 25.0239C27.0653 24.8743 26.7731 24.8085 26.4812 24.8362ZM33.3175 24.8362C33.0429 24.8513 32.7791 24.9479 32.5596 25.1136C32.3401 25.2793 32.1749 25.5066 32.085 25.7665C31.9952 26.0265 31.9849 26.3073 32.0553 26.5731C32.1256 26.839 32.2736 27.0778 32.4803 27.2593C32.8638 27.6051 33.17 28.028 33.3788 28.5002C33.5877 28.9725 33.6945 29.4835 33.6923 29.9999C33.6942 30.5162 33.5873 31.0272 33.3784 31.4994C33.1696 31.9716 32.8636 32.3945 32.4803 32.7405C32.326 32.8557 32.1975 33.0019 32.1029 33.1696C32.0083 33.3373 31.9497 33.5229 31.9308 33.7146C31.912 33.9062 31.9334 34.0996 31.9936 34.2826C32.0537 34.4655 32.1514 34.6338 32.2803 34.7769C32.4092 34.9199 32.5666 35.0345 32.7423 35.1133C32.918 35.1921 33.1082 35.2333 33.3008 35.2345C33.4933 35.2356 33.684 35.1965 33.8606 35.1198C34.0372 35.0431 34.1959 34.9303 34.3265 34.7888C34.9966 34.1836 35.5328 33.4449 35.9005 32.6202C36.2682 31.7954 36.4593 30.9029 36.4615 29.9999C36.465 29.0988 36.2793 28.207 35.9167 27.3821C35.554 26.5572 35.0223 25.8176 34.356 25.211C34.2179 25.0806 34.0544 24.9801 33.8757 24.9156C33.6971 24.8511 33.5071 24.8241 33.3175 24.8362ZM30 28.3273C29.6692 28.3275 29.3459 28.4257 29.071 28.6096C28.796 28.7935 28.5818 29.0548 28.4553 29.3604C28.3289 29.6661 28.2959 30.0024 28.3605 30.3268C28.4252 30.6512 28.5846 30.9491 28.8185 31.1829C29.0525 31.4168 29.3505 31.576 29.6749 31.6404C29.9994 31.7049 30.3356 31.6717 30.6412 31.5451C30.9468 31.4185 31.208 31.2041 31.3917 30.9291C31.5755 30.654 31.6735 30.3307 31.6735 29.9999C31.6739 29.78 31.6309 29.5622 31.5469 29.359C31.4629 29.1558 31.3396 28.9712 31.1842 28.8157C31.0287 28.6602 30.8441 28.537 30.6409 28.453C30.4376 28.369 30.2199 28.3269 30 28.3273Z" fill="#5B93FF"/>
</svg>
