<svg width="60" height="60" viewBox="0 0 60 60" fill="none" xmlns="http://www.w3.org/2000/svg">
<rect width="60" height="60" rx="30" fill="white" fill-opacity="0.32"/>
<path fill-rule="evenodd" clip-rule="evenodd" d="M21.464 20.464C20 21.93 20 24.286 20 29C20 33.714 20 36.071 21.464 37.535C22.93 39 25.286 39 30 39C34.714 39 37.071 39 38.535 37.535C40 36.072 40 33.714 40 29C40 24.286 40 21.929 38.535 20.464C37.072 19 34.714 19 30 19C25.286 19 22.929 19 21.464 20.464ZM31.75 27C31.75 27.414 32.086 27.75 32.5 27.75H33.19L31.177 29.763C31.1538 29.7863 31.1262 29.8048 31.0958 29.8174C31.0654 29.83 31.0329 29.8364 31 29.8364C30.9671 29.8364 30.9346 29.83 30.9042 29.8174C30.8738 29.8048 30.8462 29.7863 30.823 29.763L29.237 28.177C28.9088 27.8491 28.4639 27.6649 28 27.6649C27.5361 27.6649 27.0912 27.8491 26.763 28.177L24.47 30.47C24.3963 30.5387 24.3372 30.6215 24.2962 30.7135C24.2552 30.8055 24.2332 30.9048 24.2314 31.0055C24.2296 31.1062 24.2482 31.2062 24.2859 31.2996C24.3236 31.393 24.3797 31.4778 24.451 31.549C24.5222 31.6203 24.607 31.6764 24.7004 31.7141C24.7938 31.7518 24.8938 31.7704 24.9945 31.7686C25.0952 31.7668 25.1945 31.7448 25.2865 31.7038C25.3785 31.6628 25.4613 31.6037 25.53 31.53L27.823 29.237C27.8462 29.2137 27.8738 29.1952 27.9042 29.1826C27.9346 29.17 27.9671 29.1636 28 29.1636C28.0329 29.1636 28.0654 29.17 28.0958 29.1826C28.1262 29.1952 28.1538 29.2137 28.177 29.237L29.763 30.823C30.0912 31.1509 30.5361 31.3351 31 31.3351C31.4639 31.3351 31.9088 31.1509 32.237 30.823L34.25 28.811V29.5C34.25 29.6989 34.329 29.8897 34.4697 30.0303C34.6103 30.171 34.8011 30.25 35 30.25C35.1989 30.25 35.3897 30.171 35.5303 30.0303C35.671 29.8897 35.75 29.6989 35.75 29.5V27C35.75 26.8011 35.671 26.6103 35.5303 26.4697C35.3897 26.329 35.1989 26.25 35 26.25H32.5C32.3011 26.25 32.1103 26.329 31.9697 26.4697C31.829 26.6103 31.75 26.8011 31.75 27Z" fill="black"/>
</svg>
