<svg width="60" height="60" viewBox="0 0 60 60" fill="none" xmlns="http://www.w3.org/2000/svg">
<rect width="60" height="60" rx="30" fill="white" fill-opacity="0.32"/>
<g clip-path="url(#clip0_1_278)">
<path fill-rule="evenodd" clip-rule="evenodd" d="M27.522 20.5002C27.8453 20.5049 28.1583 20.614 28.4146 20.8111C28.6708 21.0083 28.8565 21.2829 28.944 21.5942L32.204 33.1842L33.595 29.4742C33.7021 29.188 33.8941 28.9415 34.1452 28.7674C34.3962 28.5934 34.6945 28.5001 35 28.5002H38C38.3978 28.5002 38.7794 28.6582 39.0607 28.9395C39.342 29.2208 39.5 29.6023 39.5 30.0002C39.5 30.398 39.342 30.7795 39.0607 31.0608C38.7794 31.3421 38.3978 31.5002 38 31.5002H36.04L33.405 38.5272C33.2942 38.8234 33.0925 39.0771 32.8288 39.2518C32.5652 39.4266 32.253 39.5135 31.937 39.5002C31.621 39.4869 31.3172 39.374 31.0692 39.1777C30.8212 38.9814 30.6415 38.7117 30.556 38.4072L27.424 27.2702L26.432 30.4462C26.3369 30.7516 26.1466 31.0186 25.889 31.2082C25.6314 31.3978 25.3199 31.5001 25 31.5002H22C21.6022 31.5002 21.2206 31.3421 20.9393 31.0608C20.658 30.7795 20.5 30.398 20.5 30.0002C20.5 29.6023 20.658 29.2208 20.9393 28.9395C21.2206 28.6582 21.6022 28.5002 22 28.5002H23.897L26.068 21.5532C26.1644 21.2443 26.358 20.9749 26.6201 20.7851C26.8821 20.5954 27.1985 20.4954 27.522 20.5002Z" fill="#605BFF"/>
</g>
<defs>
<clipPath id="clip0_1_278">
<rect width="24" height="24" fill="white" transform="translate(18 18)"/>
</clipPath>
</defs>
</svg>
